<svg xmlns="http://www.w3.org/2000/svg">
  <symbol id="icon-facebook" viewBox="0 0 28 33" fill="none">
    <path d="M21 2.75H17.5C15.9529 2.75 14.4692 3.46024 13.3752 4.72447C12.2813 5.98871 11.6667 7.70337 11.6667 9.49127V13.536H8.16669V18.929H11.6667V29.7151H16.3334V18.929H19.8334L21 13.536H16.3334V9.49127C16.3334 9.13369 16.4563 8.79076 16.6751 8.53791C16.8939 8.28506 17.1906 8.14302 17.5 8.14302H21V2.75Z" stroke="currentColor" stroke-width="1.1" stroke-linecap="round" stroke-linejoin="round"/>
  </symbol>
  <symbol id="input-icon--email" viewBox="0 0 20 15" fill="none">
    <line x1="1.65" y1="5.84766" x2="1.65" y2="13.8477" stroke="currentColor" stroke-width="1.3"/>
    <line x1="18.65" y1="5.84766" x2="18.65" y2="13.8477" stroke="currentColor" stroke-width="1.3"/>
    <line x1="1" y1="13.1977" x2="19" y2="13.1977" stroke="currentColor" stroke-width="1.3"/>
    <line x1="1" y1="1.19766" x2="19" y2="1.19766" stroke="currentColor" stroke-width="1.3"/>
    <path d="M18.35 3.02975L10 9.5242L1.65 3.02975V1.49766H4.5L10 1.49766H15H18.35V3.02975Z" stroke="currentColor" stroke-width="1.3"/>
  </symbol>
</svg>
